<?xml version="1.0" standalone="no"?><!DOCTYPE svg PUBLIC "-//W3C//DTD SVG 1.1//EN" "http://www.w3.org/Graphics/SVG/1.1/DTD/svg11.dtd"><svg t="1547355226636" class="icon" style="" viewBox="0 0 1024 1024" version="1.1" xmlns="http://www.w3.org/2000/svg" p-id="2803" xmlns:xlink="http://www.w3.org/1999/xlink" width="256" height="256"><defs><style type="text/css"></style></defs><path d="M440.888889 199.111111h-170.666667C246.613333 199.111111 227.555556 218.168889 227.555556 241.777778v170.666666c0 23.608889 19.057778 42.666667 42.666666 42.666667h170.666667c23.608889 0 42.666667-19.057778 42.666667-42.666667v-170.666666c0-23.608889-19.057778-42.666667-42.666667-42.666667z m-14.222222 163.555556c0 19.655111-15.900444 35.555556-35.555556 35.555555h-71.111111c-19.655111 0-35.555556-15.900444-35.555556-35.555555v-71.111111c0-19.655111 15.900444-35.555556 35.555556-35.555556h71.111111c19.655111 0 35.555556 15.900444 35.555556 35.555556v71.111111z m14.222222 149.333333h-170.666667c-23.608889 0-42.666667 19.057778-42.666666 42.666667v170.666666c0 23.608889 19.057778 42.666667 42.666666 42.666667h170.666667c23.608889 0 42.666667-19.057778 42.666667-42.666667v-170.666666c0-23.608889-19.057778-42.666667-42.666667-42.666667z m312.888889 0h-170.666667c-23.608889 0-42.666667 19.057778-42.666667 42.666667v170.666666c0 23.608889 19.057778 42.666667 42.666667 42.666667h170.666667c23.608889 0 42.666667-19.057778 42.666666-42.666667v-170.666666c0-23.608889-19.057778-42.666667-42.666666-42.666667z m-85.333334-312.888889a128 128 0 1 0 0 256 128 128 0 0 0 0-256z" fill="#1296db" p-id="2804"></path></svg>